<svg xmlns="http://www.w3.org/2000/svg" viewBox="0 0 551 128" width="551" height="128" role="img" aria-label="artgraph">
  <g transform="translate(10,16.0)">
    <rect width="96" height="96" rx="21" fill="#23272E"/>
    <g fill="#59626E">
      <rect x="17" y="21"   width="26" height="7" rx="3.5"/>
      <rect x="17" y="37.3" width="26" height="7" rx="3.5"/>
      <rect x="17" y="53.6" width="26" height="7" rx="3.5"/>
      <rect x="17" y="70"   width="26" height="7" rx="3.5"/>
    </g>
    <polyline points="50.0,74.0 60.0,56.7 70.0,39.3 80.0,22.0" fill="none" stroke="#2EE5C6" stroke-width="5" stroke-linecap="round" stroke-linejoin="round"/>
    <circle cx="50.0" cy="74.0" r="4.6" fill="#2EE5C6"/>
    <circle cx="60.0" cy="56.7" r="4.6" fill="#2EE5C6"/>
    <circle cx="70.0" cy="39.3" r="4.6" fill="#2EE5C6"/>
    <circle cx="80.0" cy="22.0" r="4.6" fill="#2EE5C6"/>
  </g>
  <g fill="#16181D" transform="translate(136,86) scale(0.082)">
    <path d="M229.0 10Q147.0 10 99.0 -37.5Q51.0 -85 51.0 -162Q51.0 -245 110.0 -293.0Q169.0 -341 276.0 -341H384.0V-376Q384.0 -407 362.5 -424.5Q341.0 -442 301.0 -442Q263.0 -442 240.5 -427.0Q218.0 -412 216.0 -383H74.0Q77.0 -464 138.0 -512.0Q199.0 -560 303.0 -560Q412.0 -560 473.0 -510.0Q534.0 -460 534.0 -370V0H389.0V-95Q379.0 -46 336.5 -18.0Q294.0 10 229.0 10ZM282.0 -110Q329.0 -110 356.5 -133.5Q384.0 -157 384.0 -195V-251H279.0Q239.0 -251 217.5 -231.5Q196.0 -212 196.0 -181Q196.0 -150 218.5 -130.0Q241.0 -110 282.0 -110Z M706.0 0V-550H851.0V-446Q863.0 -499 903.5 -529.5Q944.0 -560 1005.0 -560Q1088.0 -560 1135.0 -504.0Q1182.0 -448 1182.0 -350V-295H1032.0V-340Q1032.0 -383 1009.0 -406.5Q986.0 -430 944.0 -430Q902.0 -430 879.0 -403.5Q856.0 -377 856.0 -328V0Z M1595.0 0Q1511.0 0 1463.0 -48.0Q1415.0 -96 1415.0 -180V-415H1267.0V-550H1415.0V-705H1565.0V-550H1780.0V-415H1565.0V-185Q1565.0 -163 1576.5 -149.0Q1588.0 -135 1610.0 -135H1775.0V0Z M2005.0 180V60H2160.0Q2202.0 60 2224.5 39.0Q2247.0 18 2247.0 -19V-40L2248.0 -122Q2228.0 -78 2191.0 -54.0Q2154.0 -30 2103.0 -30Q2020.0 -30 1970.0 -88.0Q1920.0 -146 1920.0 -245V-345Q1920.0 -443 1970.0 -501.5Q2020.0 -560 2103.0 -560Q2155.0 -560 2192.0 -535.5Q2229.0 -511 2249.0 -467V-550H2394.0V-14Q2394.0 76 2332.5 128.0Q2271.0 180 2165.0 180ZM2157.0 -160Q2198.0 -160 2221.0 -183.5Q2244.0 -207 2244.0 -250V-340Q2244.0 -383 2221.0 -406.5Q2198.0 -430 2157.0 -430Q2115.0 -430 2092.5 -406.5Q2070.0 -383 2070.0 -340V-250Q2070.0 -207 2092.5 -183.5Q2115.0 -160 2157.0 -160Z M2566.0 0V-550H2711.0V-446Q2723.0 -499 2763.5 -529.5Q2804.0 -560 2865.0 -560Q2948.0 -560 2995.0 -504.0Q3042.0 -448 3042.0 -350V-295H2892.0V-340Q2892.0 -383 2869.0 -406.5Q2846.0 -430 2804.0 -430Q2762.0 -430 2739.0 -403.5Q2716.0 -377 2716.0 -328V0Z M3329.0 10Q3247.0 10 3199.0 -37.5Q3151.0 -85 3151.0 -162Q3151.0 -245 3210.0 -293.0Q3269.0 -341 3376.0 -341H3484.0V-376Q3484.0 -407 3462.5 -424.5Q3441.0 -442 3401.0 -442Q3363.0 -442 3340.5 -427.0Q3318.0 -412 3316.0 -383H3174.0Q3177.0 -464 3238.0 -512.0Q3299.0 -560 3403.0 -560Q3512.0 -560 3573.0 -510.0Q3634.0 -460 3634.0 -370V0H3489.0V-95Q3479.0 -46 3436.5 -18.0Q3394.0 10 3329.0 10ZM3382.0 -110Q3429.0 -110 3456.5 -133.5Q3484.0 -157 3484.0 -195V-251H3379.0Q3339.0 -251 3317.5 -231.5Q3296.0 -212 3296.0 -181Q3296.0 -150 3318.5 -130.0Q3341.0 -110 3382.0 -110Z M3786.0 180V-550H3931.0V-450Q3949.0 -502 3988.0 -531.0Q4027.0 -560 4082.0 -560Q4135.0 -560 4175.0 -532.5Q4215.0 -505 4237.5 -457.0Q4260.0 -409 4260.0 -345V-205Q4260.0 -142 4237.5 -93.5Q4215.0 -45 4175.0 -17.5Q4135.0 10 4082.0 10Q4028.0 10 3989.0 -18.5Q3950.0 -47 3932.0 -98L3936.0 30V180ZM4024.0 -120Q4065.0 -120 4087.5 -143.5Q4110.0 -167 4110.0 -210V-340Q4110.0 -384 4087.5 -407.0Q4065.0 -430 4024.0 -430Q3981.0 -430 3958.5 -405.5Q3936.0 -381 3936.0 -335V-215Q3936.0 -169 3958.5 -144.5Q3981.0 -120 4024.0 -120Z M4406.0 0V-730H4556.0V-550L4551.0 -451Q4564.0 -501 4603.5 -530.5Q4643.0 -560 4699.0 -560Q4779.0 -560 4827.5 -504.0Q4876.0 -448 4876.0 -355V0H4726.0V-340Q4726.0 -383 4703.5 -406.5Q4681.0 -430 4641.0 -430Q4601.0 -430 4578.5 -406.5Q4556.0 -383 4556.0 -340V0Z"/>
  </g>
</svg>
